# MagicaVoxel @ ephtracy

# material
mtllib milk.mtl

# normals
vn -1 0 0
vn 1 0 0
vn 0 0 1
vn 0 0 -1
vn 0 -1 0
vn 0 1 0

# texcoords
vt 0.751953 0.5
vt 0.958984 0.5

# verts
v -5 3 2
v -5 4 2
v -5 4 1
v -5 3 1
v -5 4 -0
v -5 3 -0
v -5 2 2
v -5 2 1
v -5 5 2
v -5 5 1
v -3 9 -3
v -3 10 -3
v -3 10 -4
v -3 9 -4
v -3 9 -2
v -3 10 -2
v -5 0 -3
v -5 1 -3
v -5 1 -4
v -5 0 -4
v -3 9 -1
v -3 10 -1
v -5 7 -1
v -5 8 -1
v -5 8 -2
v -5 7 -2
v -5 3 -2
v -5 4 -2
v -5 4 -3
v -5 3 -3
v -3 9 -0
v -3 10 -0
v -5 6 1
v -5 6 -0
v -5 5 -0
v -3 9 1
v -3 10 1
v -5 6 -3
v -5 7 -3
v -5 7 -4
v -5 6 -4
v -5 5 -3
v -5 5 -4
v -5 0 -2
v -5 1 -2
v -3 9 2
v -3 10 2
v -5 3 -1
v -5 4 -1
v -5 7 1
v -5 8 1
v -5 8 -0
v -5 7 -0
v -5 5 -1
v -5 5 -2
v -5 2 -3
v -5 3 -4
v -5 2 -4
v -5 2 -2
v -5 4 -4
v -5 6 -2
v -4 8 -3
v -4 9 -3
v -4 9 -4
v -4 8 -4
v -5 6 -1
v -5 6 2
v -5 0 -1
v -5 1 -1
v -5 0 -0
v -5 1 -0
v -5 2 -1
v -5 7 2
v -5 8 2
v -5 2 -0
v -5 1 2
v -5 1 1
v -5 0 2
v -5 0 1
v -5 8 -3
v -5 8 -4
v -2 8 2
v -2 9 2
v -2 9 1
v -2 8 1
v -2 8 -3
v -2 9 -3
v -2 9 -4
v -2 8 -4
v -4 8 2
v -4 9 2
v -4 9 1
v -4 8 1
v -4 9 -0
v -4 8 -0
v -4 9 -1
v -4 8 -1
v -4 9 -2
v -4 8 -2
v 0 2 1
v 0 2 -0
v 0 3 -0
v 0 3 1
v 0 4 -1
v 0 4 -2
v 0 5 -2
v 0 5 -1
v 0 4 -0
v 0 5 -0
v 0 4 1
v 0 5 1
v 0 4 2
v 0 5 2
v -2 10 -4
v -2 10 -3
v 0 0 -2
v 0 0 -3
v 0 1 -3
v 0 1 -2
v 0 1 -1
v 0 2 -2
v 0 2 -1
v 0 1 1
v 0 1 -0
v 0 4 -3
v 0 5 -3
v -2 9 -2
v -2 10 -2
v 0 0 -1
v -2 9 -1
v -2 10 -1
v 0 3 -3
v 0 3 -4
v 0 4 -4
v -2 9 -0
v -2 10 -0
v 0 3 -2
v -2 10 1
v 0 3 -1
v -2 10 2
v 0 0 -4
v 0 1 -4
v -3 8 -3
v -3 8 -4
v 0 6 -3
v 0 6 -2
v 0 6 2
v 0 6 1
v 0 7 1
v 0 7 2
v 0 6 -0
v 0 7 -0
v 0 0 -0
v 0 6 -1
v 0 7 -1
v 0 0 1
v 0 7 -2
v 0 7 -3
v 0 3 2
v 0 5 -4
v 0 6 -4
v 0 7 -4
v 0 2 -3
v 0 2 -4
v 0 2 2
v 0 1 2
v 0 0 2
v -1 8 2
v -1 8 1
v -1 9 1
v -1 9 2
v -1 8 -0
v -1 9 -0
v -1 8 -1
v -1 9 -1
v -1 8 -2
v -1 9 -2
v -1 8 -3
v -1 9 -3
v -1 8 -4
v -1 9 -4
v 0 8 1
v 0 8 2
v 0 8 -0
v 0 8 -1
v 0 8 -2
v 0 8 -3
v 0 8 -4
v -3 8 2
v -3 8 1
v -2 3 2
v -1 3 2
v -1 4 2
v -2 4 2
v -3 3 2
v -3 4 2
v -4 3 2
v -4 4 2
v -1 5 2
v -4 2 2
v -4 5 2
v -3 1 2
v -2 1 2
v -2 2 2
v -3 2 2
v -1 1 2
v -1 2 2
v -3 5 2
v -4 7 2
v -3 7 2
v -1 6 2
v -1 7 2
v -2 5 2
v -2 6 2
v -3 6 2
v -4 6 2
v -2 7 2
v -4 1 2
v -4 0 2
v -3 0 2
v -2 0 2
v -1 0 2
v -2 3 -4
v -2 4 -4
v -1 4 -4
v -1 3 -4
v -3 3 -4
v -3 4 -4
v -4 1 -4
v -4 0 -4
v -3 1 -4
v -3 0 -4
v -2 5 -4
v -1 5 -4
v -3 5 -4
v -2 1 -4
v -2 0 -4
v -2 6 -4
v -1 6 -4
v -3 6 -4
v -1 1 -4
v -1 0 -4
v -2 7 -4
v -1 7 -4
v -3 7 -4
v -4 6 -4
v -4 7 -4
v -4 5 -4
v -2 2 -4
v -1 2 -4
v -3 2 -4
v -4 2 -4
v -4 3 -4
v -4 4 -4
v -1 0 -2
v -1 0 -3
v -4 0 -3
v -1 0 -1
v -3 0 -2
v -3 0 -3
v -2 0 -3
v -2 0 -2
v -4 0 -2
v -4 0 1
v -4 0 -0
v -3 0 -0
v -3 0 1
v -3 0 -1
v -2 0 -1
v -2 0 -0
v -2 0 1
v -1 0 -0
v -1 0 1
v -4 0 -1

# faces

usemtl palette

f 1/2/1 2/2/1 3/2/1 4/2/1

f 4/2/1 3/2/1 5/2/1 6/2/1

f 7/1/1 1/1/1 4/1/1 8/1/1

f 2/2/1 9/2/1 10/2/1 3/2/1

f 11/2/1 12/2/1 13/2/1 14/2/1

f 15/2/1 16/2/1 12/2/1 11/2/1

f 17/1/1 18/1/1 19/1/1 20/1/1

f 21/2/1 22/2/1 16/2/1 15/2/1

f 23/2/1 24/2/1 25/2/1 26/2/1

f 27/2/1 28/2/1 29/2/1 30/2/1

f 31/2/1 32/2/1 22/2/1 21/2/1

f 10/2/1 33/2/1 34/2/1 35/2/1

f 36/2/1 37/2/1 32/2/1 31/2/1

f 38/2/1 39/2/1 40/2/1 41/2/1

f 42/2/1 38/2/1 41/2/1 43/2/1

f 44/1/1 45/1/1 18/1/1 17/1/1

f 46/2/1 47/2/1 37/2/1 36/2/1

f 48/2/1 49/2/1 28/2/1 27/2/1

f 50/2/1 51/2/1 52/2/1 53/2/1

f 49/2/1 54/2/1 55/2/1 28/2/1

f 3/2/1 10/2/1 35/2/1 5/2/1

f 56/1/1 30/1/1 57/1/1 58/1/1

f 53/2/1 52/2/1 24/2/1 23/2/1

f 59/1/1 27/1/1 30/1/1 56/1/1

f 30/2/1 29/2/1 60/2/1 57/2/1

f 61/2/1 26/2/1 39/2/1 38/2/1

f 62/2/1 63/2/1 64/2/1 65/2/1

f 55/2/1 61/2/1 38/2/1 42/2/1

f 66/2/1 23/2/1 26/2/1 61/2/1

f 9/2/1 67/2/1 33/2/1 10/2/1

f 34/2/1 53/2/1 23/2/1 66/2/1

f 68/1/1 69/1/1 45/1/1 44/1/1

f 54/2/1 66/2/1 61/2/1 55/2/1

f 5/2/1 35/2/1 54/2/1 49/2/1

f 70/1/1 71/1/1 69/1/1 68/1/1

f 33/2/1 50/2/1 53/2/1 34/2/1

f 28/2/1 55/2/1 42/2/1 29/2/1

f 72/1/1 48/1/1 27/1/1 59/1/1

f 6/2/1 5/2/1 49/2/1 48/2/1

f 73/2/1 74/2/1 51/2/1 50/2/1

f 75/1/1 6/1/1 48/1/1 72/1/1

f 8/1/1 4/1/1 6/1/1 75/1/1

f 67/2/1 73/2/1 50/2/1 33/2/1

f 29/2/1 42/2/1 43/2/1 60/2/1

f 35/2/1 34/2/1 66/2/1 54/2/1

f 76/1/1 7/1/1 8/1/1 77/1/1

f 78/1/1 76/1/1 77/1/1 79/1/1

f 79/1/1 77/1/1 71/1/1 70/1/1

f 26/2/1 25/2/1 80/2/1 39/2/1

f 39/2/1 80/2/1 81/2/1 40/2/1

f 82/2/1 83/2/1 84/2/1 85/2/1

f 86/2/1 87/2/1 88/2/1 89/2/1

f 90/2/1 91/2/1 92/2/1 93/2/1

f 93/2/1 92/2/1 94/2/1 95/2/1

f 95/2/1 94/2/1 96/2/1 97/2/1

f 97/2/1 96/2/1 98/2/1 99/2/1

f 99/2/1 98/2/1 63/2/1 62/2/1

f 77/1/1 8/1/1 75/1/1 71/1/1

f 71/1/1 75/1/1 72/1/1 69/1/1

f 69/1/1 72/1/1 59/1/1 45/1/1

f 45/1/1 59/1/1 56/1/1 18/1/1

f 18/1/1 56/1/1 58/1/1 19/1/1

f 100/1/2 101/1/2 102/1/2 103/1/2

f 104/2/2 105/2/2 106/2/2 107/2/2

f 108/2/2 104/2/2 107/2/2 109/2/2

f 110/2/2 108/2/2 109/2/2 111/2/2

f 112/2/2 110/2/2 111/2/2 113/2/2

f 87/2/2 88/2/2 114/2/2 115/2/2

f 116/1/2 117/1/2 118/1/2 119/1/2

f 103/2/2 102/2/2 108/2/2 110/2/2

f 120/1/2 119/1/2 121/1/2 122/1/2

f 123/1/2 124/1/2 101/1/2 100/1/2

f 105/2/2 125/2/2 126/2/2 106/2/2

f 127/2/2 87/2/2 115/2/2 128/2/2

f 129/1/2 116/1/2 119/1/2 120/1/2

f 130/2/2 127/2/2 128/2/2 131/2/2

f 132/2/2 133/2/2 134/2/2 125/2/2

f 124/1/2 120/1/2 122/1/2 101/1/2

f 135/2/2 130/2/2 131/2/2 136/2/2

f 137/2/2 132/2/2 125/2/2 105/2/2

f 84/2/2 135/2/2 136/2/2 138/2/2

f 139/2/2 137/2/2 105/2/2 104/2/2

f 83/2/2 84/2/2 138/2/2 140/2/2

f 117/1/2 141/1/2 142/1/2 118/1/2

f 102/2/2 139/2/2 104/2/2 108/2/2

f 143/2/2 144/2/2 14/2/2 11/2/2

f 106/2/2 126/2/2 145/2/2 146/2/2

f 147/2/2 148/2/2 149/2/2 150/2/2

f 148/2/2 151/2/2 152/2/2 149/2/2

f 153/1/2 129/1/2 120/1/2 124/1/2

f 151/2/2 154/2/2 155/2/2 152/2/2

f 156/1/2 153/1/2 124/1/2 123/1/2

f 154/2/2 146/2/2 157/2/2 155/2/2

f 146/2/2 145/2/2 158/2/2 157/2/2

f 159/2/2 103/2/2 110/2/2 112/2/2

f 126/2/2 160/2/2 161/2/2 145/2/2

f 145/2/2 161/2/2 162/2/2 158/2/2

f 163/1/2 164/1/2 133/1/2 132/1/2

f 165/1/2 100/1/2 103/1/2 159/1/2

f 118/1/2 142/1/2 164/1/2 163/1/2

f 119/1/2 118/1/2 163/1/2 121/1/2

f 125/2/2 134/2/2 160/2/2 126/2/2

f 166/1/2 123/1/2 100/1/2 165/1/2

f 101/1/2 122/1/2 139/1/2 102/1/2

f 122/1/2 121/1/2 137/1/2 139/1/2

f 121/1/2 163/1/2 132/1/2 137/1/2

f 107/2/2 106/2/2 146/2/2 154/2/2

f 109/2/2 107/2/2 154/2/2 151/2/2

f 111/2/2 109/2/2 151/2/2 148/2/2

f 113/2/2 111/2/2 148/2/2 147/2/2

f 167/1/2 156/1/2 123/1/2 166/1/2

f 168/2/2 169/2/2 170/2/2 171/2/2

f 169/2/2 172/2/2 173/2/2 170/2/2

f 172/2/2 174/2/2 175/2/2 173/2/2

f 174/2/2 176/2/2 177/2/2 175/2/2

f 176/2/2 178/2/2 179/2/2 177/2/2

f 178/2/2 180/2/2 181/2/2 179/2/2

f 150/2/2 149/2/2 182/2/2 183/2/2

f 149/2/2 152/2/2 184/2/2 182/2/2

f 152/2/2 155/2/2 185/2/2 184/2/2

f 155/2/2 157/2/2 186/2/2 185/2/2

f 157/2/2 158/2/2 187/2/2 186/2/2

f 158/2/2 162/2/2 188/2/2 187/2/2

f 189/2/2 190/2/2 36/2/2 46/2/2

f 191/2/3 192/2/3 193/2/3 194/2/3

f 195/2/3 191/2/3 194/2/3 196/2/3

f 197/2/3 195/2/3 196/2/3 198/2/3

f 1/2/3 197/2/3 198/2/3 2/2/3

f 193/2/3 112/2/3 113/2/3 199/2/3

f 7/1/3 200/1/3 197/1/3 1/1/3

f 2/2/3 198/2/3 201/2/3 9/2/3

f 202/1/3 203/1/3 204/1/3 205/1/3

f 203/1/3 206/1/3 207/1/3 204/1/3

f 198/2/3 196/2/3 208/2/3 201/2/3

f 46/2/3 83/2/3 140/2/3 47/2/3

f 209/2/3 210/2/3 189/2/3 90/2/3

f 211/2/3 147/2/3 150/2/3 212/2/3

f 213/2/3 199/2/3 211/2/3 214/2/3

f 208/2/3 213/2/3 214/2/3 215/2/3

f 201/2/3 208/2/3 215/2/3 216/2/3

f 9/2/3 201/2/3 216/2/3 67/2/3

f 190/1/3 85/1/3 84/1/3 36/1/3

f 192/2/3 159/2/3 112/2/3 193/2/3

f 207/1/3 165/1/3 159/1/3 192/1/3

f 73/2/3 209/2/3 90/2/3 74/2/3

f 206/1/3 166/1/3 165/1/3 207/1/3

f 217/2/3 212/2/3 168/2/3 82/2/3

f 210/2/3 217/2/3 82/2/3 189/2/3

f 214/2/3 211/2/3 212/2/3 217/2/3

f 215/2/3 214/2/3 217/2/3 210/2/3

f 216/2/3 215/2/3 210/2/3 209/2/3

f 67/2/3 216/2/3 209/2/3 73/2/3

f 196/2/3 194/2/3 213/2/3 208/2/3

f 194/2/3 193/2/3 199/2/3 213/2/3

f 200/1/3 205/1/3 195/1/3 197/1/3

f 205/1/3 204/1/3 191/1/3 195/1/3

f 204/1/3 207/1/3 192/1/3 191/1/3

f 218/1/3 202/1/3 205/1/3 200/1/3

f 76/1/3 218/1/3 200/1/3 7/1/3

f 199/2/3 113/2/3 147/2/3 211/2/3

f 78/1/3 219/1/3 218/1/3 76/1/3

f 219/1/3 220/1/3 202/1/3 218/1/3

f 220/1/3 221/1/3 203/1/3 202/1/3

f 221/1/3 222/1/3 206/1/3 203/1/3

f 222/1/3 167/1/3 166/1/3 206/1/3

f 82/2/3 168/2/3 171/2/3 83/2/3

f 212/2/3 150/2/3 183/2/3 168/2/3

f 90/2/3 189/2/3 46/2/3 91/2/3

f 223/2/4 224/2/4 225/2/4 226/2/4

f 227/2/4 228/2/4 224/2/4 223/2/4

f 14/2/4 13/2/4 114/2/4 88/2/4

f 20/1/4 19/1/4 229/1/4 230/1/4

f 230/1/4 229/1/4 231/1/4 232/1/4

f 226/2/4 225/2/4 134/2/4 133/2/4

f 224/2/4 233/2/4 234/2/4 225/2/4

f 228/2/4 235/2/4 233/2/4 224/2/4

f 232/1/4 231/1/4 236/1/4 237/1/4

f 233/2/4 238/2/4 239/2/4 234/2/4

f 235/2/4 240/2/4 238/2/4 233/2/4

f 237/1/4 236/1/4 241/1/4 242/1/4

f 238/2/4 243/2/4 244/2/4 239/2/4

f 240/2/4 245/2/4 243/2/4 238/2/4

f 246/2/4 247/2/4 245/2/4 240/2/4

f 41/2/4 40/2/4 247/2/4 246/2/4

f 248/2/4 246/2/4 240/2/4 235/2/4

f 43/2/4 41/2/4 246/2/4 248/2/4

f 242/1/4 241/1/4 142/1/4 141/1/4

f 249/1/4 223/1/4 226/1/4 250/1/4

f 251/1/4 227/1/4 223/1/4 249/1/4

f 252/1/4 253/1/4 227/1/4 251/1/4

f 58/1/4 57/1/4 253/1/4 252/1/4

f 231/1/4 251/1/4 249/1/4 236/1/4

f 253/2/4 254/2/4 228/2/4 227/2/4

f 57/2/4 60/2/4 254/2/4 253/2/4

f 229/1/4 252/1/4 251/1/4 231/1/4

f 65/2/4 64/2/4 14/2/4 144/2/4

f 143/1/4 11/1/4 87/1/4 86/1/4

f 236/1/4 249/1/4 250/1/4 241/1/4

f 234/2/4 239/2/4 161/2/4 160/2/4

f 239/2/4 244/2/4 162/2/4 161/2/4

f 250/1/4 226/1/4 133/1/4 164/1/4

f 241/1/4 250/1/4 164/1/4 142/1/4

f 225/2/4 234/2/4 160/2/4 134/2/4

f 254/2/4 248/2/4 235/2/4 228/2/4

f 60/2/4 43/2/4 248/2/4 254/2/4

f 243/2/4 89/2/4 180/2/4 244/2/4

f 245/2/4 144/2/4 89/2/4 243/2/4

f 247/2/4 65/2/4 144/2/4 245/2/4

f 40/2/4 81/2/4 65/2/4 247/2/4

f 89/2/4 88/2/4 181/2/4 180/2/4

f 244/2/4 180/2/4 188/2/4 162/2/4

f 19/1/4 58/1/4 252/1/4 229/1/4

f 11/2/5 14/2/5 88/2/5 87/2/5

f 255/1/5 256/1/5 117/1/5 116/1/5

f 17/1/5 20/1/5 230/1/5 257/1/5

f 258/1/5 255/1/5 116/1/5 129/1/5

f 259/2/5 260/2/5 261/2/5 262/2/5

f 257/1/5 230/1/5 232/1/5 260/1/5

f 260/1/5 232/1/5 237/1/5 261/1/5

f 261/1/5 237/1/5 242/1/5 256/1/5

f 44/1/5 17/1/5 257/1/5 263/1/5

f 46/2/5 36/2/5 84/2/5 83/2/5

f 256/1/5 242/1/5 141/1/5 117/1/5

f 262/2/5 261/2/5 256/2/5 255/2/5

f 264/2/5 265/2/5 266/2/5 267/2/5

f 266/2/5 268/2/5 269/2/5 270/2/5

f 267/2/5 266/2/5 270/2/5 271/2/5

f 270/2/5 269/2/5 258/2/5 272/2/5

f 271/2/5 270/2/5 272/2/5 273/2/5

f 272/1/5 258/1/5 129/1/5 153/1/5

f 273/1/5 272/1/5 153/1/5 156/1/5

f 68/1/5 44/1/5 263/1/5 274/1/5

f 70/1/5 68/1/5 274/1/5 265/1/5

f 274/2/5 263/2/5 259/2/5 268/2/5

f 265/2/5 274/2/5 268/2/5 266/2/5

f 268/2/5 259/2/5 262/2/5 269/2/5

f 263/2/5 257/2/5 260/2/5 259/2/5

f 269/2/5 262/2/5 255/2/5 258/2/5

f 78/1/5 79/1/5 264/1/5 219/1/5

f 219/1/5 264/1/5 267/1/5 220/1/5

f 220/1/5 267/1/5 271/1/5 221/1/5

f 221/1/5 271/1/5 273/1/5 222/1/5

f 222/1/5 273/1/5 156/1/5 167/1/5

f 79/1/5 70/1/5 265/1/5 264/1/5

f 12/2/6 115/2/6 114/2/6 13/2/6

f 16/2/6 128/2/6 115/2/6 12/2/6

f 22/2/6 131/2/6 128/2/6 16/2/6

f 24/2/6 97/2/6 99/2/6 25/2/6

f 32/2/6 136/2/6 131/2/6 22/2/6

f 37/2/6 138/2/6 136/2/6 32/2/6

f 47/2/6 140/2/6 138/2/6 37/2/6

f 51/2/6 93/2/6 95/2/6 52/2/6

f 52/2/6 95/2/6 97/2/6 24/2/6

f 63/2/6 11/2/6 14/2/6 64/2/6

f 74/2/6 90/2/6 93/2/6 51/2/6

f 189/2/6 82/2/6 85/2/6 190/2/6

f 143/2/6 86/2/6 89/2/6 144/2/6

f 25/2/6 99/2/6 62/2/6 80/2/6

f 80/2/6 62/2/6 65/2/6 81/2/6

f 83/2/6 171/2/6 170/2/6 84/2/6

f 84/2/6 170/2/6 173/2/6 135/2/6

f 135/2/6 173/2/6 175/2/6 130/2/6

f 130/2/6 175/2/6 177/2/6 127/2/6

f 127/2/6 177/2/6 179/2/6 87/2/6

f 87/2/6 179/2/6 181/2/6 88/2/6

f 168/2/6 183/2/6 182/2/6 169/2/6

f 169/2/6 182/2/6 184/2/6 172/2/6

f 172/2/6 184/2/6 185/2/6 174/2/6

f 174/2/6 185/2/6 186/2/6 176/2/6

f 176/2/6 186/2/6 187/2/6 178/2/6

f 178/2/6 187/2/6 188/2/6 180/2/6

f 91/2/6 46/2/6 36/2/6 92/2/6

f 92/2/6 36/2/6 31/2/6 94/2/6

f 94/2/6 31/2/6 21/2/6 96/2/6

f 96/2/6 21/2/6 15/2/6 98/2/6

f 98/2/6 15/2/6 11/2/6 63/2/6

# numNormals 6
# numTexCoords 2
# numVerts 274
# numFaces 276
