# MagicaVoxel @ ephtracy

# material
mtllib wine.mtl

# normals
vn -1 0 0
vn 1 0 0
vn 0 0 1
vn 0 0 -1
vn 0 -1 0
vn 0 1 0

# texcoords
vt 0.650391 0.5
vt 0.794922 0.5
vt 0.865234 0.5
vt 0.966797 0.5

# verts
v 0 8 -0
v 0 9 -0
v 0 9 -1
v 0 8 -1
v 0 7 -0
v 0 7 -1
v 0 6 -1
v 0 7 -2
v 0 6 -2
v -1 0 -1
v -1 1 -1
v -1 1 -2
v -1 0 -2
v 0 6 1
v 0 7 1
v 0 6 -0
v -1 1 -0
v -1 2 -0
v -1 2 -1
v -1 2 -2
v -1 3 -0
v -1 3 -1
v -1 3 -2
v -1 4 -0
v -1 4 -1
v -1 4 -2
v -1 5 -0
v -1 5 -1
v -1 5 -2
v -1 6 -0
v -1 6 -1
v -1 6 -2
v -1 7 -0
v -1 7 -1
v -1 0 -0
v -1 1 1
v -1 2 1
v -1 3 1
v -1 4 1
v -1 5 1
v -1 6 1
v -1 0 1
v 0 10 -0
v 0 10 -1
v 1 8 -0
v 1 8 -1
v 1 9 -1
v 1 9 -0
v 2 4 1
v 2 4 -0
v 2 5 -0
v 2 5 1
v 1 7 -0
v 1 7 -1
v 2 5 -1
v 2 6 -1
v 2 6 -0
v 2 1 1
v 2 1 -0
v 2 2 -0
v 2 2 1
v 2 3 -0
v 2 3 -1
v 2 4 -1
v 2 7 -1
v 2 7 -0
v 1 6 -1
v 1 6 -2
v 1 7 -2
v 2 6 1
v 2 2 -1
v 2 1 -1
v 2 3 1
v 1 6 1
v 1 6 -0
v 1 7 1
v 2 1 -2
v 2 2 -2
v 2 3 -2
v 2 4 -2
v 2 5 -2
v 2 6 -2
v 2 0 -0
v 2 0 -1
v 2 0 1
v 2 0 -2
v 1 10 -1
v 1 10 -0
v 0 0 1
v 1 0 1
v 1 1 1
v 0 1 1
v 1 4 1
v 1 5 1
v 1 2 1
v 1 3 1
v 0 2 1
v 0 3 1
v 0 4 1
v 0 5 1
v 0 2 -2
v 0 3 -2
v 1 3 -2
v 1 2 -2
v 0 1 -2
v 1 1 -2
v 0 4 -2
v 0 5 -2
v 1 5 -2
v 1 4 -2
v 0 0 -2
v 1 0 -2
v 0 0 -0
v 1 0 -0
v 0 0 -1
v 1 0 -1

# faces

usemtl palette

f 1/2/1 2/2/1 3/2/1 4/2/1

f 5/1/1 1/1/1 4/1/1 6/1/1

f 7/1/1 6/1/1 8/1/1 9/1/1

f 10/1/1 11/1/1 12/1/1 13/1/1

f 14/1/1 15/1/1 5/1/1 16/1/1

f 17/4/1 18/4/1 19/4/1 11/4/1

f 11/4/1 19/4/1 20/4/1 12/4/1

f 18/4/1 21/4/1 22/4/1 19/4/1

f 19/4/1 22/4/1 23/4/1 20/4/1

f 21/4/1 24/4/1 25/4/1 22/4/1

f 22/4/1 25/4/1 26/4/1 23/4/1

f 24/4/1 27/4/1 28/4/1 25/4/1

f 25/4/1 28/4/1 29/4/1 26/4/1

f 27/1/1 30/1/1 31/1/1 28/1/1

f 28/1/1 31/1/1 32/1/1 29/1/1

f 30/1/1 33/1/1 34/1/1 31/1/1

f 35/1/1 17/1/1 11/1/1 10/1/1

f 36/4/1 37/4/1 18/4/1 17/4/1

f 37/4/1 38/4/1 21/4/1 18/4/1

f 38/4/1 39/4/1 24/4/1 21/4/1

f 39/4/1 40/4/1 27/4/1 24/4/1

f 40/1/1 41/1/1 30/1/1 27/1/1

f 42/1/1 36/1/1 17/1/1 35/1/1

f 2/3/1 43/3/1 44/3/1 3/3/1

f 45/2/2 46/2/2 47/2/2 48/2/2

f 49/1/2 50/1/2 51/1/2 52/1/2

f 53/1/2 54/1/2 46/1/2 45/1/2

f 51/1/2 55/1/2 56/1/2 57/1/2

f 58/1/2 59/1/2 60/1/2 61/1/2

f 62/1/2 63/1/2 64/1/2 50/1/2

f 57/1/2 56/1/2 65/1/2 66/1/2

f 67/1/2 68/1/2 69/1/2 54/1/2

f 50/1/2 64/1/2 55/1/2 51/1/2

f 52/1/2 51/1/2 57/1/2 70/1/2

f 60/1/2 71/1/2 63/1/2 62/1/2

f 59/1/2 72/1/2 71/1/2 60/1/2

f 73/1/2 62/1/2 50/1/2 49/1/2

f 61/1/2 60/1/2 62/1/2 73/1/2

f 74/1/2 75/1/2 53/1/2 76/1/2

f 72/1/2 77/1/2 78/1/2 71/1/2

f 71/1/2 78/1/2 79/1/2 63/1/2

f 63/1/2 79/1/2 80/1/2 64/1/2

f 64/1/2 80/1/2 81/1/2 55/1/2

f 55/1/2 81/1/2 82/1/2 56/1/2

f 83/1/2 84/1/2 72/1/2 59/1/2

f 85/1/2 83/1/2 59/1/2 58/1/2

f 84/1/2 86/1/2 77/1/2 72/1/2

f 48/3/2 47/3/2 87/3/2 88/3/2

f 1/2/3 45/2/3 48/2/3 2/2/3

f 89/1/3 90/1/3 91/1/3 92/1/3

f 93/1/3 49/1/3 52/1/3 94/1/3

f 5/1/3 53/1/3 45/1/3 1/1/3

f 91/1/3 58/1/3 61/1/3 95/1/3

f 75/1/3 57/1/3 66/1/3 53/1/3

f 94/1/3 52/1/3 70/1/3 74/1/3

f 96/1/3 73/1/3 49/1/3 93/1/3

f 95/1/3 61/1/3 73/1/3 96/1/3

f 92/1/3 91/1/3 95/1/3 97/1/3

f 97/1/3 95/1/3 96/1/3 98/1/3

f 98/1/3 96/1/3 93/1/3 99/1/3

f 99/1/3 93/1/3 94/1/3 100/1/3

f 100/1/3 94/1/3 74/1/3 14/1/3

f 14/1/3 74/1/3 76/1/3 15/1/3

f 30/1/3 16/1/3 5/1/3 33/1/3

f 36/4/3 92/4/3 97/4/3 37/4/3

f 37/4/3 97/4/3 98/4/3 38/4/3

f 38/4/3 98/4/3 99/4/3 39/4/3

f 39/4/3 99/4/3 100/4/3 40/4/3

f 40/1/3 100/1/3 14/1/3 41/1/3

f 42/1/3 89/1/3 92/1/3 36/1/3

f 90/1/3 85/1/3 58/1/3 91/1/3

f 2/3/3 48/3/3 88/3/3 43/3/3

f 4/2/4 3/2/4 47/2/4 46/2/4

f 101/1/4 102/1/4 103/1/4 104/1/4

f 6/1/4 4/1/4 46/1/4 54/1/4

f 105/1/4 101/1/4 104/1/4 106/1/4

f 107/1/4 108/1/4 109/1/4 110/1/4

f 67/1/4 54/1/4 65/1/4 56/1/4

f 9/1/4 8/1/4 69/1/4 68/1/4

f 108/1/4 9/1/4 68/1/4 109/1/4

f 13/1/4 12/1/4 105/1/4 111/1/4

f 102/1/4 107/1/4 110/1/4 103/1/4

f 12/4/4 20/4/4 101/4/4 105/4/4

f 20/4/4 23/4/4 102/4/4 101/4/4

f 23/4/4 26/4/4 107/4/4 102/4/4

f 26/4/4 29/4/4 108/4/4 107/4/4

f 29/1/4 32/1/4 9/1/4 108/1/4

f 31/1/4 34/1/4 6/1/4 7/1/4

f 106/1/4 104/1/4 78/1/4 77/1/4

f 104/1/4 103/1/4 79/1/4 78/1/4

f 103/1/4 110/1/4 80/1/4 79/1/4

f 110/1/4 109/1/4 81/1/4 80/1/4

f 109/1/4 68/1/4 82/1/4 81/1/4

f 111/1/4 105/1/4 106/1/4 112/1/4

f 112/1/4 106/1/4 77/1/4 86/1/4

f 3/3/4 44/3/4 87/3/4 47/3/4

f 89/1/5 113/1/5 114/1/5 90/1/5

f 10/1/5 13/1/5 111/1/5 115/1/5

f 113/1/5 115/1/5 116/1/5 114/1/5

f 35/1/5 10/1/5 115/1/5 113/1/5

f 114/1/5 116/1/5 84/1/5 83/1/5

f 115/1/5 111/1/5 112/1/5 116/1/5

f 42/1/5 35/1/5 113/1/5 89/1/5

f 90/1/5 114/1/5 83/1/5 85/1/5

f 116/1/5 112/1/5 86/1/5 84/1/5

f 53/1/6 66/1/6 65/1/6 54/1/6

f 6/1/6 54/1/6 69/1/6 8/1/6

f 74/1/6 70/1/6 57/1/6 75/1/6

f 15/1/6 76/1/6 53/1/6 5/1/6

f 31/1/6 7/1/6 9/1/6 32/1/6

f 33/1/6 5/1/6 6/1/6 34/1/6

f 67/1/6 56/1/6 82/1/6 68/1/6

f 41/1/6 14/1/6 16/1/6 30/1/6

f 43/3/6 88/3/6 87/3/6 44/3/6

# numNormals 6
# numTexCoords 4
# numVerts 116
# numFaces 114
