# MagicaVoxel @ ephtracy

# material
mtllib condom.mtl

# normals
vn -1 0 0
vn 1 0 0
vn 0 0 1
vn 0 0 -1
vn 0 -1 0
vn 0 1 0

# texcoords
vt 0.0332031 0.5
vt 0.0371094 0.5
vt 0.0449219 0.5

# verts
v 1 8 1
v 1 9 1
v 1 9 -0
v 1 8 -0
v 1 7 1
v 1 7 -0
v 1 6 1
v 1 6 -0
v -5 3 2
v -5 4 2
v -5 4 1
v -5 3 1
v -5 4 -0
v -5 3 -0
v -5 4 -1
v -5 3 -1
v -5 4 -2
v -5 3 -2
v 1 4 1
v 1 5 1
v 1 5 -0
v 1 4 -0
v -5 4 -3
v -5 3 -3
v -4 3 -3
v -4 4 -3
v -4 4 -4
v -4 3 -4
v -4 4 3
v -4 5 3
v -4 5 2
v -4 4 2
v -4 5 1
v -4 4 1
v -2 4 2
v -2 5 2
v -2 5 1
v -2 4 1
v -2 7 2
v -2 8 2
v -2 8 1
v -2 7 1
v -2 6 2
v -2 6 1
v 1 6 -1
v 1 5 -1
v -4 5 -0
v -4 4 -0
v -2 5 -0
v -2 4 -0
v -4 5 -1
v -4 4 -1
v -2 5 -1
v -2 4 -1
v 1 9 -1
v 1 8 -1
v -4 5 -2
v -4 4 -2
v -2 5 -2
v -2 4 -2
v -4 5 -3
v -3 4 -3
v -3 5 -3
v -3 5 -4
v -3 4 -4
v 3 4 -1
v 3 5 -1
v 3 5 -2
v 3 4 -2
v -2 6 -0
v -2 6 -1
v 3 5 -3
v 3 4 -3
v -2 6 -2
v 1 7 -1
v 1 4 -1
v -2 7 -0
v -2 7 -1
v -2 7 -2
v -3 3 -4
v -3 4 -5
v -3 3 -5
v -2 8 -0
v -2 8 -1
v -2 8 -2
v -4 3 4
v -4 4 4
v -4 3 3
v -5 3 3
v -5 4 3
v -3 4 4
v -3 5 4
v -3 5 3
v -3 4 3
v -3 3 5
v -3 4 5
v -3 3 4
v -1 8 2
v -1 9 2
v -1 9 1
v -1 8 1
v -2 9 1
v -2 9 -0
v -2 9 -1
v -1 8 -1
v -1 9 -1
v -1 9 -2
v -1 8 -2
v -1 10 1
v -1 10 -0
v -1 9 -0
v -1 10 -1
v 3 4 3
v 3 5 3
v 3 5 2
v 3 4 2
v 3 5 1
v 3 4 1
v 3 5 -0
v 3 4 -0
v 2 3 2
v 2 4 2
v 2 4 1
v 2 3 1
v 2 4 -0
v 2 3 -0
v 2 4 -1
v 2 3 -1
v 2 4 -2
v 2 3 -2
v 3 3 -4
v 3 3 -5
v 3 4 -5
v 3 4 -4
v 4 3 -3
v 4 3 -4
v 4 4 -4
v 4 4 -3
v 3 5 -4
v 2 8 1
v 2 8 -0
v 2 9 -0
v 2 9 1
v 2 7 1
v 2 7 -0
v 2 7 2
v 2 8 2
v 2 6 1
v 2 6 -0
v 2 5 2
v 2 5 1
v 2 6 2
v 2 5 -0
v 3 3 5
v 3 3 4
v 3 4 4
v 3 4 5
v -3 4 2
v -3 5 2
v -3 4 1
v -3 5 1
v 2 5 -1
v 2 6 -1
v -3 4 -0
v -3 5 -0
v -1 4 1
v -1 4 -0
v -1 5 -0
v -1 5 1
v 1 8 -2
v 1 9 -2
v -3 4 -1
v -3 5 -1
v -1 4 -1
v -1 5 -1
v 2 8 -1
v 2 9 -1
v -3 4 -2
v -3 5 -2
v 2 5 -2
v 4 4 -1
v 4 4 -2
v 4 5 -2
v 4 5 -1
v -1 6 -0
v -1 6 1
v 2 7 -1
v 2 7 -2
v 2 8 -2
v -1 6 -1
v 4 5 -3
v 2 6 -2
v -1 7 -0
v -1 7 1
v 5 3 -2
v 5 3 -3
v 5 4 -3
v 5 4 -2
v -1 7 -1
v -1 8 -0
v 1 10 -1
v 1 10 -0
v 5 3 1
v 5 3 -0
v 5 4 -0
v 5 4 1
v 1 8 2
v 1 9 2
v 5 3 -1
v 5 4 -1
v 1 10 1
v 4 3 4
v 4 3 3
v 4 4 3
v 4 4 4
v 3 5 4
v 4 4 2
v 4 5 2
v 4 5 3
v 4 4 1
v 4 5 1
v 4 4 -0
v 4 5 -0
v 5 3 3
v 5 3 2
v 5 4 2
v 5 4 3
v -2 3 2
v -2 3 1
v -2 3 -0
v -2 3 -1
v -2 3 -2
v 2 4 -3
v 2 5 -3
v 1 7 2
v 1 5 2
v 1 6 2
v 1 4 2
v 1 4 4
v 2 4 4
v 2 5 4
v 1 5 4
v 2 3 5
v 2 4 5
v 1 3 5
v 1 4 5
v -1 4 2
v -1 5 2
v -1 7 2
v -1 6 2
v 0 8 -1
v 0 9 -1
v 0 4 -1
v 0 5 -1
v -2 4 -3
v -2 5 -3
v -1 4 -3
v -1 5 -3
v 0 4 -3
v 0 5 -3
v 1 4 -3
v 1 5 -3
v 0 6 -1
v 0 7 -1
v 0 5 2
v 0 6 2
v -2 4 4
v -2 5 4
v -1 4 4
v -1 5 4
v 0 4 4
v 0 5 4
v -2 3 5
v -2 4 5
v -1 3 5
v -1 4 5
v 0 3 5
v 0 4 5
v 0 8 2
v 0 9 2
v 0 9 1
v 0 10 1
v 0 7 2
v 0 4 2
v -1 3 -2
v -1 4 -2
v 0 3 -2
v 0 4 -2
v 1 3 -2
v 1 4 -2
v 2 3 -5
v 2 4 -5
v 2 4 -4
v 2 5 -4
v 1 4 3
v 1 5 3
v 2 5 3
v 2 4 3
v 0 8 -2
v 0 9 -2
v -1 5 -2
v 0 5 -2
v 1 5 -2
v -2 5 -4
v -2 4 -4
v -1 5 -4
v -1 4 -4
v 0 5 -4
v 0 4 -4
v 1 5 -4
v 1 4 -4
v 1 3 -5
v 1 4 -5
v 1 7 -2
v -1 6 -2
v 0 6 -2
v 1 6 -2
v 0 3 -5
v 0 4 -5
v -1 7 -2
v 0 7 -2
v -2 4 -5
v -2 3 -5
v 0 5 1
v 0 6 1
v -2 5 3
v -2 4 3
v -1 5 3
v -1 4 3
v 0 5 3
v 0 4 3
v -1 3 -5
v -1 4 -5
v 0 10 -1
v 0 8 1
v 0 7 1
v 0 4 1
v -1 3 2
v 0 3 2
v 1 3 2
v 2 3 -3
v 2 3 -4
v 3 3 -3
v -4 3 2
v -3 3 2
v -3 3 3
v -4 3 1
v -3 3 1
v -4 3 -0
v -3 3 -0
v -4 3 -1
v -3 3 -1
v -4 3 -2
v -3 3 -2
v -3 3 -3
v 2 3 4
v 2 3 3
v 3 3 3
v 1 3 4
v 1 3 3
v -2 3 -4
v -2 3 -3
v -1 3 -4
v -1 3 -3
v 0 3 -4
v 0 3 -3
v 1 3 -4
v 1 3 -3
v 4 3 -2
v 3 3 -2
v -2 3 3
v -2 3 4
v -1 3 3
v -1 3 4
v 0 3 3
v 0 3 4
v 0 9 -0
v 4 3 1
v 4 3 -0
v 4 3 -1
v 3 3 -1
v 3 3 2
v 4 3 2
v 3 3 1
v 3 3 -0
v 0 10 -0

# faces

usemtl palette

f 1/1/1 2/1/1 3/1/1 4/1/1

f 5/1/1 1/1/1 4/1/1 6/1/1

f 7/1/1 5/1/1 6/1/1 8/1/1

f 9/2/1 10/2/1 11/2/1 12/2/1

f 12/2/1 11/2/1 13/2/1 14/2/1

f 14/2/1 13/2/1 15/2/1 16/2/1

f 16/2/1 15/2/1 17/2/1 18/2/1

f 19/1/1 20/1/1 21/1/1 22/1/1

f 18/2/1 17/2/1 23/2/1 24/2/1

f 25/2/1 26/2/1 27/2/1 28/2/1

f 29/2/1 30/2/1 31/2/1 32/2/1

f 32/2/1 31/2/1 33/2/1 34/2/1

f 35/1/1 36/1/1 37/1/1 38/1/1

f 39/1/1 40/1/1 41/1/1 42/1/1

f 43/1/1 39/1/1 42/1/1 44/1/1

f 21/1/1 8/1/1 45/1/1 46/1/1

f 34/2/1 33/2/1 47/2/1 48/2/1

f 38/1/1 37/1/1 49/1/1 50/1/1

f 48/2/1 47/2/1 51/2/1 52/2/1

f 50/1/1 49/1/1 53/1/1 54/1/1

f 4/1/1 3/1/1 55/1/1 56/1/1

f 52/2/1 51/2/1 57/2/1 58/2/1

f 54/1/1 53/1/1 59/1/1 60/1/1

f 58/2/1 57/2/1 61/2/1 26/2/1

f 62/2/1 63/2/1 64/2/1 65/2/1

f 36/1/1 43/1/1 44/1/1 37/1/1

f 66/2/1 67/2/1 68/2/1 69/2/1

f 37/1/1 44/1/1 70/1/1 49/1/1

f 49/1/1 70/1/1 71/1/1 53/1/1

f 69/2/1 68/2/1 72/2/1 73/2/1

f 53/1/1 71/1/1 74/1/1 59/1/1

f 6/1/1 4/1/1 56/1/1 75/1/1

f 22/1/1 21/1/1 46/1/1 76/1/1

f 44/1/1 42/1/1 77/1/1 70/1/1

f 70/1/1 77/1/1 78/1/1 71/1/1

f 71/1/1 78/1/1 79/1/1 74/1/1

f 80/2/1 65/2/1 81/2/1 82/2/1

f 42/1/1 41/1/1 83/1/1 77/1/1

f 77/1/1 83/1/1 84/1/1 78/1/1

f 78/1/1 84/1/1 85/1/1 79/1/1

f 86/2/1 87/2/1 29/2/1 88/2/1

f 89/2/1 90/2/1 10/2/1 9/2/1

f 91/2/1 92/2/1 93/2/1 94/2/1

f 95/2/1 96/2/1 91/2/1 97/2/1

f 8/1/1 6/1/1 75/1/1 45/1/1

f 98/1/1 99/1/1 100/1/1 101/1/1

f 41/1/1 102/1/1 103/1/1 83/1/1

f 83/1/1 103/1/1 104/1/1 84/1/1

f 105/1/1 106/1/1 107/1/1 108/1/1

f 100/1/1 109/1/1 110/1/1 111/1/1

f 111/1/1 110/1/1 112/1/1 106/1/1

f 20/1/1 7/1/1 8/1/1 21/1/1

f 113/2/1 114/2/1 115/2/1 116/2/1

f 116/2/1 115/2/1 117/2/1 118/2/1

f 118/2/1 117/2/1 119/2/1 120/2/1

f 120/2/1 119/2/1 67/2/1 66/2/1

f 121/1/1 122/1/1 123/1/1 124/1/1

f 124/1/1 123/1/1 125/1/1 126/1/1

f 126/1/1 125/1/1 127/1/1 128/1/1

f 128/1/1 127/1/1 129/1/1 130/1/1

f 131/2/2 132/2/2 133/2/2 134/2/2

f 135/2/2 136/2/2 137/2/2 138/2/2

f 73/2/2 134/2/2 139/2/2 72/2/2

f 140/1/2 141/1/2 142/1/2 143/1/2

f 144/1/2 145/1/2 141/1/2 140/1/2

f 146/1/2 144/1/2 140/1/2 147/1/2

f 148/1/2 149/1/2 145/1/2 144/1/2

f 150/1/2 151/1/2 148/1/2 152/1/2

f 122/1/2 123/1/2 151/1/2 150/1/2

f 123/1/2 125/1/2 153/1/2 151/1/2

f 152/1/2 148/1/2 144/1/2 146/1/2

f 154/2/2 155/2/2 156/2/2 157/2/2

f 94/2/2 158/2/2 159/2/2 93/2/2

f 158/2/2 160/2/2 161/2/2 159/2/2

f 153/1/2 162/1/2 163/1/2 149/1/2

f 160/2/2 164/2/2 165/2/2 161/2/2

f 166/1/2 167/1/2 168/1/2 169/1/2

f 56/1/2 170/1/2 171/1/2 55/1/2

f 164/2/2 172/2/2 173/2/2 165/2/2

f 167/1/2 174/1/2 175/1/2 168/1/2

f 141/1/2 176/1/2 177/1/2 142/1/2

f 172/2/2 178/2/2 179/2/2 173/2/2

f 127/1/2 129/1/2 180/1/2 162/1/2

f 178/2/2 62/2/2 63/2/2 179/2/2

f 181/2/2 182/2/2 183/2/2 184/2/2

f 169/1/2 168/1/2 185/1/2 186/1/2

f 187/1/2 188/1/2 189/1/2 176/1/2

f 168/1/2 175/1/2 190/1/2 185/1/2

f 182/2/2 138/2/2 191/2/2 183/2/2

f 162/1/2 180/1/2 192/1/2 163/1/2

f 145/1/2 187/1/2 176/1/2 141/1/2

f 125/1/2 127/1/2 162/1/2 153/1/2

f 186/1/2 185/1/2 193/1/2 194/1/2

f 195/2/2 196/2/2 197/2/2 198/2/2

f 185/1/2 190/1/2 199/1/2 193/1/2

f 163/1/2 192/1/2 188/1/2 187/1/2

f 194/1/2 193/1/2 200/1/2 101/1/2

f 193/1/2 199/1/2 105/1/2 200/1/2

f 3/1/2 55/1/2 201/1/2 202/1/2

f 149/1/2 163/1/2 187/1/2 145/1/2

f 203/2/2 204/2/2 205/2/2 206/2/2

f 207/1/2 1/1/2 2/1/2 208/1/2

f 101/1/2 200/1/2 111/1/2 100/1/2

f 200/1/2 105/1/2 106/1/2 111/1/2

f 209/2/2 195/2/2 198/2/2 210/2/2

f 204/2/2 209/2/2 210/2/2 205/2/2

f 2/1/2 3/1/2 202/1/2 211/1/2

f 212/2/2 213/2/2 214/2/2 215/2/2

f 156/2/2 113/2/2 114/2/2 216/2/2

f 151/1/2 153/1/2 149/1/2 148/1/2

f 214/2/2 217/2/2 218/2/2 219/2/2

f 217/2/2 220/2/2 221/2/2 218/2/2

f 220/2/2 222/2/2 223/2/2 221/2/2

f 222/2/2 181/2/2 184/2/2 223/2/2

f 224/2/2 225/2/2 226/2/2 227/2/2

f 225/2/2 203/2/2 206/2/2 226/2/2

f 228/1/2 229/1/2 38/1/2 35/1/2

f 229/1/2 230/1/2 50/1/2 38/1/2

f 230/1/2 231/1/2 54/1/2 50/1/2

f 231/1/2 232/1/2 60/1/2 54/1/2

f 233/2/3 73/2/3 72/2/3 234/2/3

f 1/1/3 140/1/3 143/1/3 2/1/3

f 235/1/3 146/1/3 147/1/3 207/1/3

f 236/1/3 150/1/3 152/1/3 237/1/3

f 238/1/3 122/1/3 150/1/3 236/1/3

f 239/2/3 240/2/3 241/2/3 242/2/3

f 237/1/3 152/1/3 146/1/3 235/1/3

f 243/2/3 154/2/3 157/2/3 244/2/3

f 245/2/3 243/2/3 244/2/3 246/2/3

f 29/2/3 94/2/3 93/2/3 30/2/3

f 35/1/3 247/1/3 248/1/3 36/1/3

f 39/1/3 249/1/3 98/1/3 40/1/3

f 43/1/3 250/1/3 249/1/3 39/1/3

f 251/1/3 56/1/3 55/1/3 252/1/3

f 174/1/3 253/1/3 254/1/3 175/1/3

f 253/1/3 76/1/3 46/1/3 254/1/3

f 62/2/3 255/2/3 256/2/3 63/2/3

f 255/2/3 257/2/3 258/2/3 256/2/3

f 257/2/3 259/2/3 260/2/3 258/2/3

f 259/2/3 261/2/3 262/2/3 260/2/3

f 36/1/3 248/1/3 250/1/3 43/1/3

f 261/2/3 233/2/3 234/2/3 262/2/3

f 175/1/3 254/1/3 263/1/3 190/1/3

f 254/1/3 46/1/3 45/1/3 263/1/3

f 190/1/3 263/1/3 264/1/3 199/1/3

f 263/1/3 45/1/3 75/1/3 264/1/3

f 199/1/3 264/1/3 251/1/3 105/1/3

f 264/1/3 75/1/3 56/1/3 251/1/3

f 86/2/3 97/2/3 91/2/3 87/2/3

f 89/2/3 88/2/3 29/2/3 90/2/3

f 265/1/3 236/1/3 237/1/3 266/1/3

f 91/2/3 267/2/3 268/2/3 92/2/3

f 267/2/3 269/2/3 270/2/3 268/2/3

f 269/2/3 271/2/3 272/2/3 270/2/3

f 271/2/3 239/2/3 242/2/3 272/2/3

f 95/2/3 273/2/3 274/2/3 96/2/3

f 273/2/3 275/2/3 276/2/3 274/2/3

f 275/2/3 277/2/3 278/2/3 276/2/3

f 98/1/3 279/1/3 280/1/3 99/1/3

f 279/1/3 207/1/3 208/1/3 280/1/3

f 41/1/3 101/1/3 100/1/3 102/1/3

f 105/1/3 251/1/3 252/1/3 106/1/3

f 100/1/3 281/1/3 282/1/3 109/1/3

f 281/1/3 2/1/3 211/1/3 282/1/3

f 277/2/3 245/2/3 246/2/3 278/2/3

f 266/1/3 237/1/3 235/1/3 283/1/3

f 248/1/3 265/1/3 266/1/3 250/1/3

f 284/1/3 238/1/3 236/1/3 265/1/3

f 247/1/3 284/1/3 265/1/3 248/1/3

f 283/1/3 235/1/3 207/1/3 279/1/3

f 249/1/3 283/1/3 279/1/3 98/1/3

f 250/1/3 266/1/3 283/1/3 249/1/3

f 155/2/3 212/2/3 215/2/3 156/2/3

f 240/2/3 156/2/3 216/2/3 241/2/3

f 113/2/3 214/2/3 219/2/3 114/2/3

f 213/2/3 224/2/3 227/2/3 214/2/3

f 232/1/3 285/1/3 286/1/3 60/1/3

f 285/1/3 287/1/3 288/1/3 286/1/3

f 287/1/3 289/1/3 290/1/3 288/1/3

f 289/1/3 130/1/3 129/1/3 290/1/3

f 291/2/4 292/2/4 133/2/4 132/2/4

f 131/2/4 134/2/4 137/2/4 136/2/4

f 293/2/4 294/2/4 139/2/4 134/2/4

f 295/2/4 296/2/4 297/2/4 298/2/4

f 24/2/4 23/2/4 26/2/4 25/2/4

f 28/2/4 27/2/4 65/2/4 80/2/4

f 299/1/4 300/1/4 171/1/4 170/1/4

f 56/1/4 55/1/4 177/1/4 176/1/4

f 60/1/4 59/1/4 301/1/4 286/1/4

f 286/1/4 301/1/4 302/1/4 288/1/4

f 288/1/4 302/1/4 303/1/4 290/1/4

f 290/1/4 303/1/4 180/1/4 129/1/4

f 26/2/4 61/2/4 63/2/4 62/2/4

f 65/2/4 64/2/4 304/2/4 305/2/4

f 305/2/4 304/2/4 306/2/4 307/2/4

f 307/2/4 306/2/4 308/2/4 309/2/4

f 309/2/4 308/2/4 310/2/4 311/2/4

f 312/2/4 313/2/4 292/2/4 291/2/4

f 311/2/4 310/2/4 294/2/4 293/2/4

f 314/1/4 170/1/4 189/1/4 188/1/4

f 73/2/4 72/2/4 191/2/4 138/2/4

f 59/1/4 74/1/4 315/1/4 301/1/4

f 301/1/4 315/1/4 316/1/4 302/1/4

f 302/1/4 316/1/4 317/1/4 303/1/4

f 303/1/4 317/1/4 192/1/4 180/1/4

f 318/2/4 319/2/4 313/2/4 312/2/4

f 135/2/4 138/2/4 197/2/4 196/2/4

f 74/1/4 79/1/4 320/1/4 315/1/4

f 315/1/4 320/1/4 321/1/4 316/1/4

f 316/1/4 321/1/4 314/1/4 317/1/4

f 317/1/4 314/1/4 188/1/4 192/1/4

f 82/2/4 81/2/4 322/2/4 323/2/4

f 79/1/4 85/1/4 108/1/4 320/1/4

f 320/1/4 108/1/4 299/1/4 321/1/4

f 321/1/4 299/1/4 170/1/4 314/1/4

f 324/1/4 325/1/4 7/1/4 20/1/4

f 94/2/4 93/2/4 326/2/4 327/2/4

f 327/2/4 326/2/4 328/2/4 329/2/4

f 329/2/4 328/2/4 330/2/4 331/2/4

f 331/2/4 330/2/4 296/2/4 295/2/4

f 332/2/4 333/2/4 319/2/4 318/2/4

f 252/1/4 334/1/4 201/1/4 55/1/4

f 323/2/4 322/2/4 333/2/4 332/2/4

f 101/1/4 100/1/4 281/1/4 335/1/4

f 335/1/4 281/1/4 2/1/4 1/1/4

f 84/1/4 104/1/4 106/1/4 105/1/4

f 108/1/4 107/1/4 300/1/4 299/1/4

f 106/1/4 112/1/4 334/1/4 252/1/4

f 325/1/4 336/1/4 5/1/4 7/1/4

f 169/1/4 186/1/4 325/1/4 324/1/4

f 337/1/4 324/1/4 20/1/4 19/1/4

f 166/1/4 169/1/4 324/1/4 337/1/4

f 336/1/4 335/1/4 1/1/4 5/1/4

f 194/1/4 101/1/4 335/1/4 336/1/4

f 186/1/4 194/1/4 336/1/4 325/1/4

f 298/2/4 297/2/4 114/2/4 113/2/4

f 228/1/4 35/1/4 247/1/4 338/1/4

f 338/1/4 247/1/4 284/1/4 339/1/4

f 339/1/4 284/1/4 238/1/4 340/1/4

f 340/1/4 238/1/4 122/1/4 121/1/4

f 341/3/5 342/3/5 131/3/5 343/3/5

f 342/2/5 291/2/5 132/2/5 131/2/5

f 343/2/5 131/2/5 136/2/5 135/2/5

f 88/2/5 344/2/5 345/2/5 346/2/5

f 9/2/5 12/2/5 347/2/5 344/2/5

f 344/2/5 347/2/5 348/2/5 345/2/5

f 12/2/5 14/2/5 349/2/5 347/2/5

f 347/2/5 349/2/5 350/2/5 348/2/5

f 238/1/5 19/1/5 123/1/5 122/1/5

f 14/2/5 16/2/5 351/2/5 349/2/5

f 349/2/5 351/2/5 352/2/5 350/2/5

f 16/2/5 18/2/5 353/2/5 351/2/5

f 351/2/5 353/2/5 354/2/5 352/2/5

f 19/1/5 22/1/5 125/1/5 123/1/5

f 18/2/5 24/2/5 25/2/5 353/2/5

f 353/2/5 25/2/5 355/2/5 354/2/5

f 356/2/5 357/2/5 358/2/5 155/2/5

f 359/2/5 360/2/5 357/2/5 356/2/5

f 243/2/5 356/2/5 155/2/5 154/2/5

f 245/2/5 359/2/5 356/2/5 243/2/5

f 25/2/5 28/2/5 80/2/5 355/2/5

f 355/3/5 80/3/5 361/3/5 362/3/5

f 362/3/5 361/3/5 363/3/5 364/3/5

f 364/3/5 363/3/5 365/3/5 366/3/5

f 366/3/5 365/3/5 367/3/5 368/3/5

f 35/1/5 38/1/5 166/1/5 247/1/5

f 38/1/5 50/1/5 167/1/5 166/1/5

f 50/1/5 54/1/5 174/1/5 167/1/5

f 54/1/5 60/1/5 286/1/5 174/1/5

f 174/1/5 286/1/5 288/1/5 253/1/5

f 253/1/5 288/1/5 290/1/5 76/1/5

f 76/1/5 290/1/5 129/1/5 127/1/5

f 367/2/5 312/2/5 291/2/5 342/2/5

f 365/2/5 318/2/5 312/2/5 367/2/5

f 22/1/5 76/1/5 127/1/5 125/1/5

f 369/2/5 135/2/5 196/2/5 195/2/5

f 370/2/5 343/2/5 135/2/5 369/2/5

f 368/3/5 367/3/5 342/3/5 341/3/5

f 80/2/5 82/2/5 323/2/5 361/2/5

f 86/2/5 88/2/5 346/2/5 97/2/5

f 97/2/5 346/2/5 371/2/5 372/2/5

f 372/2/5 371/2/5 373/2/5 374/2/5

f 374/2/5 373/2/5 375/2/5 376/2/5

f 376/2/5 375/2/5 360/2/5 359/2/5

f 89/2/5 9/2/5 344/2/5 88/2/5

f 363/2/5 332/2/5 318/2/5 365/2/5

f 377/1/5 252/1/5 55/1/5 3/1/5

f 95/2/5 97/2/5 372/2/5 273/2/5

f 273/2/5 372/2/5 374/2/5 275/2/5

f 275/2/5 374/2/5 376/2/5 277/2/5

f 361/2/5 323/2/5 332/2/5 363/2/5

f 378/2/5 379/2/5 204/2/5 203/2/5

f 380/2/5 369/2/5 195/2/5 209/2/5

f 379/2/5 380/2/5 209/2/5 204/2/5

f 100/1/5 111/1/5 377/1/5 281/1/5

f 281/1/5 377/1/5 3/1/5 2/1/5

f 111/1/5 106/1/5 252/1/5 377/1/5

f 277/2/5 376/2/5 359/2/5 245/2/5

f 284/1/5 337/1/5 19/1/5 238/1/5

f 247/1/5 166/1/5 337/1/5 284/1/5

f 381/2/5 370/2/5 369/2/5 380/2/5

f 155/2/5 358/2/5 213/2/5 212/2/5

f 358/2/5 382/2/5 383/2/5 213/2/5

f 382/2/5 384/2/5 378/2/5 383/2/5

f 384/2/5 385/2/5 379/2/5 378/2/5

f 385/2/5 381/2/5 380/2/5 379/2/5

f 213/2/5 383/2/5 225/2/5 224/2/5

f 383/2/5 378/2/5 203/2/5 225/2/5

f 346/1/5 345/1/5 228/1/5 371/1/5

f 371/1/5 228/1/5 338/1/5 373/1/5

f 373/1/5 338/1/5 339/1/5 375/1/5

f 375/1/5 339/1/5 340/1/5 360/1/5

f 360/1/5 340/1/5 121/1/5 357/1/5

f 357/1/5 121/1/5 382/1/5 358/1/5

f 345/1/5 348/1/5 229/1/5 228/1/5

f 121/1/5 124/1/5 384/1/5 382/1/5

f 348/1/5 350/1/5 230/1/5 229/1/5

f 124/1/5 126/1/5 385/1/5 384/1/5

f 350/1/5 352/1/5 231/1/5 230/1/5

f 126/1/5 128/1/5 381/1/5 385/1/5

f 352/1/5 354/1/5 232/1/5 231/1/5

f 128/1/5 130/1/5 370/1/5 381/1/5

f 354/1/5 355/1/5 362/1/5 232/1/5

f 232/1/5 362/1/5 364/1/5 285/1/5

f 285/1/5 364/1/5 366/1/5 287/1/5

f 287/1/5 366/1/5 368/1/5 289/1/5

f 289/1/5 368/1/5 341/1/5 130/1/5

f 130/1/5 341/1/5 343/1/5 370/1/5

f 293/2/6 134/2/6 133/2/6 292/2/6

f 73/2/6 138/2/6 137/2/6 134/2/6

f 234/2/6 72/2/6 139/2/6 294/2/6

f 2/1/6 143/1/6 142/1/6 3/1/6

f 207/1/6 147/1/6 140/1/6 1/1/6

f 10/2/6 32/2/6 34/2/6 11/2/6

f 11/2/6 34/2/6 48/2/6 13/2/6

f 13/2/6 48/2/6 52/2/6 15/2/6

f 242/2/6 241/2/6 297/2/6 296/2/6

f 15/2/6 52/2/6 58/2/6 17/2/6

f 17/2/6 58/2/6 26/2/6 23/2/6

f 244/2/6 157/2/6 156/2/6 240/2/6

f 246/2/6 244/2/6 240/2/6 239/2/6

f 26/2/6 62/2/6 65/2/6 27/2/6

f 30/2/6 93/2/6 159/2/6 31/2/6

f 31/2/6 159/2/6 161/2/6 33/2/6

f 40/1/6 98/1/6 101/1/6 41/1/6

f 33/2/6 161/2/6 165/2/6 47/2/6

f 252/1/6 55/1/6 171/1/6 300/1/6

f 47/2/6 165/2/6 173/2/6 51/2/6

f 3/1/6 142/1/6 177/1/6 55/1/6

f 51/2/6 173/2/6 179/2/6 57/2/6

f 57/2/6 179/2/6 63/2/6 61/2/6

f 63/2/6 256/2/6 304/2/6 64/2/6

f 256/2/6 258/2/6 306/2/6 304/2/6

f 258/2/6 260/2/6 308/2/6 306/2/6

f 260/2/6 262/2/6 310/2/6 308/2/6

f 311/2/6 293/2/6 292/2/6 313/2/6

f 67/2/6 184/2/6 183/2/6 68/2/6

f 262/2/6 234/2/6 294/2/6 310/2/6

f 56/1/6 176/1/6 189/1/6 170/1/6

f 68/2/6 183/2/6 191/2/6 72/2/6

f 309/2/6 311/2/6 313/2/6 319/2/6

f 182/2/6 198/2/6 197/2/6 138/2/6

f 65/2/6 305/2/6 322/2/6 81/2/6

f 84/1/6 105/1/6 108/1/6 85/1/6

f 87/2/6 91/2/6 94/2/6 29/2/6

f 90/2/6 29/2/6 32/2/6 10/2/6

f 92/2/6 268/2/6 326/2/6 93/2/6

f 268/2/6 270/2/6 328/2/6 326/2/6

f 270/2/6 272/2/6 330/2/6 328/2/6

f 272/2/6 242/2/6 296/2/6 330/2/6

f 307/2/6 309/2/6 319/2/6 333/2/6

f 386/1/6 202/1/6 201/1/6 334/1/6

f 96/2/6 274/2/6 267/2/6 91/2/6

f 274/2/6 276/2/6 269/2/6 267/2/6

f 276/2/6 278/2/6 271/2/6 269/2/6

f 305/2/6 307/2/6 333/2/6 322/2/6

f 220/2/6 206/2/6 205/2/6 222/2/6

f 99/1/6 280/1/6 281/1/6 100/1/6

f 280/1/6 208/1/6 2/1/6 281/1/6

f 102/1/6 100/1/6 111/1/6 103/1/6

f 103/1/6 111/1/6 106/1/6 104/1/6

f 181/2/6 210/2/6 198/2/6 182/2/6

f 222/2/6 205/2/6 210/2/6 181/2/6

f 106/1/6 252/1/6 300/1/6 107/1/6

f 109/1/6 282/1/6 386/1/6 110/1/6

f 282/1/6 211/1/6 202/1/6 386/1/6

f 110/1/6 386/1/6 334/1/6 112/1/6

f 278/2/6 246/2/6 239/2/6 271/2/6

f 156/2/6 215/2/6 214/2/6 113/2/6

f 241/2/6 216/2/6 114/2/6 297/2/6

f 114/2/6 219/2/6 218/2/6 115/2/6

f 115/2/6 218/2/6 221/2/6 117/2/6

f 117/2/6 221/2/6 223/2/6 119/2/6

f 119/2/6 223/2/6 184/2/6 67/2/6

f 214/2/6 227/2/6 226/2/6 217/2/6

f 217/2/6 226/2/6 206/2/6 220/2/6

f 94/1/6 327/1/6 35/1/6 158/1/6

f 327/1/6 329/1/6 247/1/6 35/1/6

f 329/1/6 331/1/6 284/1/6 247/1/6

f 331/1/6 295/1/6 238/1/6 284/1/6

f 295/1/6 298/1/6 122/1/6 238/1/6

f 298/1/6 113/1/6 116/1/6 122/1/6

f 158/1/6 35/1/6 38/1/6 160/1/6

f 122/1/6 116/1/6 118/1/6 123/1/6

f 160/1/6 38/1/6 50/1/6 164/1/6

f 123/1/6 118/1/6 120/1/6 125/1/6

f 164/1/6 50/1/6 54/1/6 172/1/6

f 125/1/6 120/1/6 66/1/6 127/1/6

f 172/1/6 54/1/6 60/1/6 178/1/6

f 127/1/6 66/1/6 69/1/6 129/1/6

f 178/1/6 60/1/6 255/1/6 62/1/6

f 60/1/6 286/1/6 257/1/6 255/1/6

f 286/1/6 288/1/6 259/1/6 257/1/6

f 288/1/6 290/1/6 261/1/6 259/1/6

f 290/1/6 129/1/6 233/1/6 261/1/6

f 129/1/6 69/1/6 73/1/6 233/1/6

# numNormals 6
# numTexCoords 3
# numVerts 386
# numFaces 416
